<?xml version="1.0" encoding="UTF-8"?>
<svg version="1.1" xmlns="http://www.w3.org/2000/svg" width="512" height="512">
<path d="M0 0 C1.46049774 0.00273422 1.46049774 0.00273422 2.95050049 0.00552368 C16.9687164 0.04974564 30.60882275 0.45111782 44.375 3.3125 C45.23996094 3.47878906 46.10492188 3.64507812 46.99609375 3.81640625 C89.63891184 12.07577561 129.00699421 31.37326489 161.375 60.3125 C161.90496582 60.78606934 162.43493164 61.25963867 162.98095703 61.74755859 C166.48550831 64.89435139 169.94221185 68.08760597 173.375 71.3125 C174.03113281 71.92609375 174.68726563 72.5396875 175.36328125 73.171875 C180.51502233 78.14596984 184.93138003 83.70872309 189.375 89.3125 C190.17035156 90.3025 190.96570313 91.2925 191.78515625 92.3125 C217.93751165 125.46921049 232.68671111 163.11510053 241.125 204.1875 C241.32383789 205.14841553 241.52267578 206.10933105 241.72753906 207.09936523 C244.93159894 223.37934184 245.75065114 239.3185954 245.6875 255.875 C245.68534485 256.8916272 245.6831897 257.90825439 245.68096924 258.95568848 C245.63000916 273.93559514 245.29820835 288.5730164 242.375 303.3125 C242.17632324 304.33537109 241.97764648 305.35824219 241.77294922 306.41210938 C237.11165658 329.72206415 229.8406514 351.9681366 219.375 373.3125 C218.98586426 374.10994629 218.59672852 374.90739258 218.19580078 375.72900391 C208.08395757 396.22195285 195.23902821 415.10519767 179.66015625 431.83984375 C177.74596117 433.91110099 175.92912389 436.02164701 174.125 438.1875 C141.08598126 476.02375331 92.58796182 498.8171127 44.375 509.3125 C43.48635254 509.5089209 42.59770508 509.7053418 41.68212891 509.90771484 C13.28094409 515.83763255 -20.41687459 514.57747428 -48.625 508.3125 C-49.69234375 508.07644043 -50.7596875 507.84038086 -51.859375 507.59716797 C-92.25876322 498.31703599 -129.78760685 478.86526024 -160.15234375 450.59765625 C-162.22360099 448.68346117 -164.33414701 446.86662389 -166.5 445.0625 C-212.69628806 404.60546565 -239.78609923 339.46124855 -244.625 279.3125 C-244.77192075 275.9136448 -244.81106208 272.51894899 -244.828125 269.1171875 C-244.83522995 268.17526047 -244.8423349 267.23333344 -244.84965515 266.26286316 C-245.08014804 226.72244844 -245.08014804 226.72244844 -241.625 209.3125 C-241.27840332 207.53528564 -241.27840332 207.53528564 -240.92480469 205.72216797 C-229.16228196 146.90215652 -201.39031532 91.96950716 -153.625 54.3125 C-152.87347656 53.68214844 -152.12195313 53.05179688 -151.34765625 52.40234375 C-119.16387811 25.61003614 -78.82951761 8.75647591 -37.625 2.3125 C-35.94591553 2.04651001 -35.94591553 2.04651001 -34.23291016 1.77514648 C-22.81672527 0.14850302 -11.5185687 -0.04470638 0 0 Z " fill="#F5B546" transform="translate(255.625,-0.3125)"/>
<path d="M0 0 C-4.86100454 5.86370084 -10.11006222 11.22459486 -15.51953125 16.58203125 C-16.41870773 17.47742111 -17.31788422 18.37281097 -18.24430847 19.29533386 C-21.09795876 22.13682862 -23.95473473 24.97514562 -26.8125 27.8125 C-30.59283518 31.56601534 -34.36959849 35.32308055 -38.14453125 39.08203125 C-39.01737259 39.94657425 -39.89021393 40.81111725 -40.789505 41.70185852 C-41.99161873 42.89901741 -41.99161873 42.89901741 -43.21801758 44.12036133 C-43.92606033 44.82316727 -44.63410309 45.52597321 -45.36360168 46.25007629 C-47.0759705 47.91505453 -47.0759705 47.91505453 -48 50 C-50.417397 50.61968806 -52.8053327 51.13830485 -55.25 51.625 C-101.75460586 61.8617693 -142.53347619 93.45718022 -168.0625 133.0625 C-179.21034646 150.87898749 -188.22237633 170.71366075 -192.72616577 191.32292175 C-194.20559843 195.593485 -195.90420838 197.42183369 -199.18408203 200.49780273 C-199.97455933 201.2508242 -199.97455933 201.2508242 -200.78100586 202.01905823 C-201.91955078 203.10200985 -203.06342532 204.17938059 -204.21203995 205.25164604 C-206.03452875 206.95861659 -207.83538156 208.6858061 -209.63131714 210.42066956 C-214.73599831 215.3490013 -219.85806812 220.25752575 -225.03857422 225.10620117 C-228.21413073 228.08126079 -231.34814729 231.09518734 -234.46004868 234.1367054 C-235.64556 235.28042462 -236.84561136 236.40928736 -238.06055069 237.52169609 C-245.45847318 244.12405932 -245.45847318 244.12405932 -248.75415039 253.14930725 C-249.07772427 261.34619555 -247.52947209 269.5911586 -245.75 277.5625 C-245.51966064 278.64184814 -245.28932129 279.72119629 -245.05200195 280.83325195 C-244.38920235 283.89407662 -243.7007518 286.94767158 -243 290 C-242.83483887 290.73637695 -242.66967773 291.47275391 -242.49951172 292.23144531 C-233.9148542 329.85943475 -214.32447362 364.21017149 -189 393 C-188.20335937 393.90878906 -187.40671875 394.81757813 -186.5859375 395.75390625 C-179.14791982 404.12487116 -171.47395463 411.74540791 -162.66796875 418.68261719 C-161.496965 419.60749076 -160.3306927 420.53837139 -159.16796875 421.47363281 C-135.32474887 440.62227082 -108.20866829 454.91004888 -79 464 C-77.14761719 464.61488281 -77.14761719 464.61488281 -75.2578125 465.2421875 C-71.84930821 466.03505301 -70.30075874 465.98615756 -67 465 C-65.1413338 463.60869982 -65.1413338 463.60869982 -63.54931641 461.74951172 C-62.91740387 461.06565399 -62.28549133 460.38179626 -61.63442993 459.67721558 C-60.62816055 458.56468918 -60.62816055 458.56468918 -59.6015625 457.4296875 C-58.13860191 455.8771296 -56.67369396 454.32640482 -55.20703125 452.77734375 C-52.91194124 450.33424666 -50.63158615 447.88228336 -48.38330078 445.39599609 C-35.86401177 431.61735405 -35.86401177 431.61735405 -29.11401367 430.16235352 C-25.27869489 430.44204102 -21.74999572 431.16327296 -18 432 C-15.36809682 432.12157356 -12.73235248 432.17634924 -10.09765625 432.16796875 C-8.78361816 432.17538086 -7.46958008 432.18279297 -6.11572266 432.19042969 C-4.76464811 432.19067597 -3.41357282 432.1896783 -2.0625 432.1875 C-1.01192413 432.18659363 -1.01192413 432.18659363 0.05987549 432.18566895 C10.17368366 432.16203519 20.02894697 431.91497045 30 430 C30.9885498 429.82259277 30.9885498 429.82259277 31.99707031 429.64160156 C71.00552743 422.52776228 104.47858346 404.16129119 133 377 C133.70640625 376.34644531 134.4128125 375.69289063 135.140625 375.01953125 C167.01731727 344.63300955 186.9816374 296.72213261 188.23699951 253.07841492 C188.35318683 247.22778566 188.32472036 241.378337 188.23828125 235.52734375 C188.23111084 234.30249268 188.22394043 233.0776416 188.21655273 231.81567383 C188.054656 228.9630425 187.75678803 226.69085835 187.12915039 223.95581055 C186.01678385 218.4215438 185.38380669 213.68093831 188.40914917 208.6625061 C193.23419883 202.45775791 199.03538198 197.23386522 204.8125 191.9375 C206.53848617 190.28474632 208.26053807 188.62787367 209.97851562 186.96679688 C213.11373252 183.96444131 216.25761514 180.97392422 219.45239258 178.03491211 C220.09050369 177.44665146 220.72861481 176.85839081 221.38606262 176.25230408 C223 175 223 175 225 175 C227.53180164 181.95701368 229.00403786 188.76371596 230.1875 196.0625 C230.36474609 197.11888672 230.54199219 198.17527344 230.72460938 199.26367188 C231.15618309 201.84145002 231.58116655 204.42012674 232 207 C232.13767939 202.46067025 232.13767939 202.46067025 231.5 198 C230.75139172 195.0055669 230.94095972 192.07009479 231 189 C231.33 189 231.66 189 232 189 C232.65140456 192.79073089 233.29508257 196.58273657 233.9375 200.375 C234.11990234 201.43589844 234.30230469 202.49679688 234.49023438 203.58984375 C234.66748047 204.64042969 234.84472656 205.69101563 235.02734375 206.7734375 C235.27085571 208.20308838 235.27085571 208.20308838 235.51928711 209.66162109 C236.64969956 217.51193085 237.16340564 225.26734601 237.203125 233.1953125 C237.21018463 234.13746613 237.21724426 235.07961975 237.22451782 236.05032349 C237.45352121 275.58655794 237.45352121 275.58655794 234 293 C233.80132324 294.02287109 233.60264648 295.04574219 233.39794922 296.09960938 C228.73665658 319.40956415 221.4656514 341.6556366 211 363 C210.61086426 363.79744629 210.22172852 364.59489258 209.82080078 365.41650391 C199.70895757 385.90945285 186.86402821 404.79269767 171.28515625 421.52734375 C169.37096117 423.59860099 167.55412389 425.70914701 165.75 427.875 C132.71098126 465.71125331 84.21296182 488.5046127 36 499 C35.11135254 499.1964209 34.22270508 499.3928418 33.30712891 499.59521484 C4.90594409 505.52513255 -28.79187459 504.26497428 -57 498 C-58.06734375 497.76394043 -59.1346875 497.52788086 -60.234375 497.28466797 C-100.63376322 488.00453599 -138.16260685 468.55276024 -168.52734375 440.28515625 C-170.59860099 438.37096117 -172.70914701 436.55412389 -174.875 434.75 C-221.07128806 394.29296565 -248.16109923 329.14874855 -253 269 C-253.14692071 265.60114566 -253.18612185 262.20644906 -253.203125 258.8046875 C-253.21009399 257.86217133 -253.21706299 256.91965515 -253.22424316 255.94857788 C-253.24153941 252.92400599 -253.24796257 249.89961929 -253.25 246.875 C-253.25100708 245.84354858 -253.25201416 244.81209717 -253.25305176 243.74938965 C-253.23878985 222.18957505 -251.21207426 201.95412598 -246 181 C-245.34 181.99 -244.68 182.98 -244 184 C-243.71503662 182.99924438 -243.71503662 182.99924438 -243.42431641 181.97827148 C-231.10654025 139.20232656 -210.65394827 103.19871417 -180 71 C-179.31550781 70.27425781 -178.63101563 69.54851562 -177.92578125 68.80078125 C-172.67476964 63.37935141 -166.91515691 58.67601337 -161 54 C-160.01128906 53.2059375 -159.02257812 52.411875 -158.00390625 51.59375 C-112.85173836 15.96806947 -57.39328401 -1.8967683 0 0 Z " fill="#FCD735" transform="translate(264,10)"/>
<path d="M0 0 C1.64912349 2.44916295 3.15457527 4.88268881 4.625 7.4375 C5.07012939 8.20739258 5.51525879 8.97728516 5.97387695 9.77050781 C14.22660331 24.2551857 20.15983739 39.05532785 25 55 C25.32871094 56.07636719 25.65742188 57.15273437 25.99609375 58.26171875 C26.79468946 61.16231768 27.42656851 64.04628683 28 67 C28.20085205 67.99265869 28.20085205 67.99265869 28.40576172 69.00537109 C37.8680774 117.50905225 27.03505955 169.65635509 -0.40625 210.65234375 C-31.01370459 255.09746453 -75.3739998 282.65462958 -128 293 C-129.26328125 293.24878906 -130.5265625 293.49757813 -131.828125 293.75390625 C-180.0397332 301.34670358 -230.42900778 287.98179989 -270 260 C-269.57133833 252.98191123 -266.66836679 247.28876612 -263.6875 241 C-263.14915527 239.85297607 -262.61081055 238.70595215 -262.05615234 237.52416992 C-251.50302356 215.22742112 -240.26958985 192.49963226 -225 173 C-221.28713351 174.71322199 -219.47568214 176.57216654 -216.9375 179.8125 C-216.15246094 180.79863281 -215.36742187 181.78476562 -214.55859375 182.80078125 C-214.14335449 183.32365723 -213.72811523 183.8465332 -213.30029297 184.38525391 C-211.0862299 187.13474943 -208.79069562 189.81432929 -206.5 192.5 C-203.14479821 196.44586555 -199.82776253 200.41644433 -196.5625 204.4375 C-193.10725543 208.68392758 -189.57293424 212.85288424 -186 217 C-182.38987968 221.1917382 -178.81392953 225.40390122 -175.3125 229.6875 C-174.63276123 230.50275146 -173.95302246 231.31800293 -173.25268555 232.15795898 C-171 235 -171 235 -169.16601562 237.85693359 C-166.11840176 242.32365954 -163.71208994 245.40802922 -158.50268555 247.20922852 C-154.33200874 247.81720727 -150.39150443 248.00520057 -146.1875 247.9375 C-145.46088165 247.94225342 -144.73426331 247.94700684 -143.98562622 247.9519043 C-133.64840191 247.91204116 -127.19688306 246.03460167 -119.54614258 238.82250977 C-115.76533269 234.73173362 -112.23961215 230.53244342 -109 226 C-110.62753524 221.61271103 -112.85565806 218.53277354 -115.9375 215.0625 C-119.92423544 210.46931671 -123.77572069 205.80848672 -127.5 201 C-131.50053733 195.84974396 -135.63490696 190.84455552 -139.87719727 185.89233398 C-143.64593217 181.47130518 -147.22545088 176.92075216 -150.78051758 172.32714844 C-154.77096749 167.20710967 -158.98376515 162.29586526 -163.29272461 157.44165039 C-167 153.21189377 -167 153.21189377 -167 151 C-166.09121094 150.731875 -165.18242187 150.46375 -164.24609375 150.1875 C-150.27922866 145.83270309 -137.96304051 139.86072382 -127 130 C-126.36707031 129.44828125 -125.73414063 128.8965625 -125.08203125 128.328125 C-112.61542105 116.76967845 -107.69697005 101.02020356 -104 85 C-94.76 85 -85.52 85 -76 85 C-75.34 82.03 -74.68 79.06 -74 76 C-71.63633621 65.56214015 -69.0259664 55.26667171 -66 45 C-74.58 45 -83.16 45 -92 45 C-71.84135333 28.87308267 -26.42175616 0 0 0 Z " fill="#F39E09" transform="translate(415,140)"/>
<path d="M0 0 C1.46049774 0.00273422 1.46049774 0.00273422 2.95050049 0.00552368 C16.9687164 0.04974564 30.60882275 0.45111782 44.375 3.3125 C45.23996094 3.47878906 46.10492188 3.64507812 46.99609375 3.81640625 C89.63891184 12.07577561 129.00699421 31.37326489 161.375 60.3125 C161.90496582 60.78606934 162.43493164 61.25963867 162.98095703 61.74755859 C166.48550831 64.89435139 169.94221185 68.08760597 173.375 71.3125 C174.03113281 71.92609375 174.68726563 72.5396875 175.36328125 73.171875 C180.51502233 78.14596984 184.93138003 83.70872309 189.375 89.3125 C190.17035156 90.3025 190.96570313 91.2925 191.78515625 92.3125 C219.46072374 127.40038271 243.84861497 176.41319993 241.375 222.3125 C241.045 222.3125 240.715 222.3125 240.375 222.3125 C240.11021851 220.89771362 240.11021851 220.89771362 239.84008789 219.4543457 C239.18252036 215.94126677 238.52454764 212.42826382 237.86645508 208.9152832 C237.5821655 207.39740014 237.2979845 205.87949673 237.01391602 204.36157227 C236.60461803 202.17458777 236.19492431 199.98767771 235.78515625 197.80078125 C235.65907486 197.12662674 235.53299347 196.45247223 235.40309143 195.75788879 C234.74939779 192.27138562 234.07967076 188.78907068 233.375 185.3125 C226.1918246 191.45390661 219.17427987 197.78455058 212.32641602 204.296875 C210.98405957 205.557053 209.62510649 206.79978232 208.25024414 208.02441406 C199.57130534 215.34601736 199.57130534 215.34601736 195.7199707 225.52270508 C195.80519436 229.15935408 196.36990749 232.68021063 197.03610229 236.25085449 C197.56106711 239.44441803 197.58105288 242.60846956 197.61328125 245.83984375 C197.63132812 247.05003174 197.649375 248.26021973 197.66796875 249.50708008 C197.87910762 289.96920477 187.20545045 329.20053171 163.375 362.3125 C162.9536377 362.90063477 162.53227539 363.48876953 162.09814453 364.09472656 C156.10194253 372.36906388 149.41599094 379.92779205 142.375 387.3125 C141.28445313 388.48232422 141.28445313 388.48232422 140.171875 389.67578125 C109.76018378 421.38278525 62.74036796 442.24711397 18.82299805 443.40625 C15.47226325 443.43983501 12.12348623 443.45309288 8.77270508 443.44287109 C6.70841982 443.43755389 4.64435644 443.44282399 2.58007812 443.44921875 C1.56733574 443.44755707 1.56733574 443.44755707 0.53413391 443.44586182 C-0.83406929 443.44549445 -2.20230567 443.45446457 -3.57038879 443.47259521 C-7.05313557 443.48432382 -9.92300491 443.24487708 -13.35620117 442.46582031 C-18.33196787 441.44158287 -22.3011402 440.79330616 -26.7492981 443.70123291 C-32.56311197 448.5236392 -37.54273052 454.19005871 -42.5625 459.8125 C-44.85879959 462.34297834 -47.16594675 464.86007461 -49.50282288 467.35314941 C-50.94943548 468.90019974 -52.37223609 470.46995498 -53.76707458 472.06384277 C-58.47994672 477.15509199 -58.47994672 477.15509199 -61.73675537 477.60279846 C-63.83666992 477.37133789 -63.83666992 477.37133789 -67.625 476.3125 C-68.43630371 476.10488037 -69.24760742 475.89726074 -70.08349609 475.68334961 C-70.76492676 475.44624268 -71.44635742 475.20913574 -72.1484375 474.96484375 C-73.32418335 474.55818481 -73.32418335 474.55818481 -74.52368164 474.14331055 C-75.74945923 473.70112183 -75.74945923 473.70112183 -77 473.25 C-77.87068115 472.93909424 -78.7413623 472.62818848 -79.63842773 472.30786133 C-121.79714244 456.97359847 -160.9159327 430.92415328 -188.625 395.3125 C-189.40101563 394.3534375 -190.17703125 393.394375 -190.9765625 392.40625 C-211.50708312 366.59645265 -226.54065627 336.28627285 -234.625 304.3125 C-234.89884521 303.23814697 -234.89884521 303.23814697 -235.17822266 302.14208984 C-236.41823022 297.21773546 -237.55805468 292.27706192 -238.625 287.3125 C-238.85316406 286.26578125 -239.08132812 285.2190625 -239.31640625 284.140625 C-239.88480553 281.19925807 -240.26977755 278.28732092 -240.625 275.3125 C-240.86682007 273.52573853 -240.86682007 273.52573853 -241.11352539 271.70288086 C-241.63606363 264.78774308 -241.71112583 259.6858628 -237.17048645 254.15977478 C-234.5043581 251.28391717 -231.68486113 248.60507605 -228.8125 245.9375 C-227.5983271 244.75323143 -226.38768397 243.56533423 -225.18041992 242.37402344 C-222.01865476 239.27287142 -218.8118914 236.22281366 -215.59265137 233.18151855 C-212.3061501 230.05976033 -209.06540378 226.8912454 -205.8203125 223.7265625 C-199.46538465 217.54237753 -193.06184819 211.41129293 -186.625 205.3125 C-185.22515939 208.11218121 -186.06035754 210.1970074 -186.60498047 213.17602539 C-195.16899871 261.35662532 -183.74334688 312.1097363 -156.3125 352.5 C-139.96762105 375.91146736 -119.30747169 395.03268858 -94.625 409.3125 C-93.89684082 409.73418457 -93.16868164 410.15586914 -92.41845703 410.59033203 C-75.35950775 420.32407628 -56.93247864 427.52752365 -37.625 431.3125 C-36.53276123 431.53462158 -36.53276123 431.53462158 -35.41845703 431.76123047 C11.82467869 440.99516127 63.7237749 430.90434971 103.88671875 404.39453125 C128.65329764 387.51172359 149.53559399 366.48884352 164.375 340.3125 C164.72481934 339.71630859 165.07463867 339.12011719 165.43505859 338.50585938 C175.47502454 321.31977399 182.60005039 301.85425041 186.375 282.3125 C186.52163086 281.59400879 186.66826172 280.87551758 186.81933594 280.13525391 C196.06558479 233.23788204 185.93674832 181.77050081 159.5234375 141.9296875 C131.64304307 101.09848822 90.15396998 69.69597627 40.953125 59.96484375 C36.24413463 59.10647583 31.52495862 58.34365493 26.78662109 57.66625977 C25.0322702 57.40891471 23.28410539 57.10826859 21.54125977 56.78198242 C15.07061932 55.82253747 8.46939075 56.07137613 1.9375 56.0625 C1.16087006 56.06016357 0.38424011 56.05782715 -0.41592407 56.05541992 C-13.67942727 56.04036856 -26.53835001 57.05293453 -39.625 59.3125 C-34.74775563 53.4327495 -29.48613122 48.04369183 -24.0703125 42.66015625 C-23.16876434 41.76002304 -22.26721619 40.85988983 -21.33834839 39.93247986 C-18.96301783 37.56177177 -16.58554595 35.19325485 -14.20697021 32.82580566 C-11.77155283 30.40069272 -9.33903088 27.97267915 -6.90625 25.54492188 C-2.14847231 20.79812872 2.6121538 16.05420719 7.375 11.3125 C-5.85304283 11.1450812 -18.87331973 11.04485514 -32 12.875 C-33.29454102 13.04990967 -34.58908203 13.22481934 -35.92285156 13.4050293 C-48.80636776 15.23198609 -61.23376712 18.38289755 -73.625 22.3125 C-74.46885254 22.57901367 -75.31270508 22.84552734 -76.18212891 23.12011719 C-119.12514218 37.04710867 -159.73227372 64.71513953 -187.625 100.3125 C-188.40359375 101.27414063 -189.1821875 102.23578125 -189.984375 103.2265625 C-209.79542893 128.14811124 -223.71273272 156.51346559 -232.36791992 187.06347656 C-232.76974487 188.46098145 -232.76974487 188.46098145 -233.1796875 189.88671875 C-233.41155762 190.71776123 -233.64342773 191.54880371 -233.88232422 192.4050293 C-234.625 194.3125 -234.625 194.3125 -236.625 195.3125 C-236.96617527 188.08106774 -235.84072316 182.1565683 -233.75 175.25 C-233.28352051 173.68995239 -233.28352051 173.68995239 -232.80761719 172.09838867 C-225.57123418 148.67174369 -215.11498634 125.18674357 -200.625 105.3125 C-200.19106934 104.71163574 -199.75713867 104.11077148 -199.31005859 103.49169922 C-185.99350691 85.11348741 -171.49000263 68.39683144 -153.625 54.3125 C-152.87347656 53.68214844 -152.12195313 53.05179688 -151.34765625 52.40234375 C-119.16387811 25.61003614 -78.82951761 8.75647591 -37.625 2.3125 C-35.94591553 2.04651001 -35.94591553 2.04651001 -34.23291016 1.77514648 C-22.81672527 0.14850302 -11.5185687 -0.04470638 0 0 Z " fill="#FDEB99" transform="translate(255.625,-0.3125)"/>
<path d="M0 0 C57.42 0 114.84 0 174 0 C171.74776025 13.51343849 171.74776025 13.51343849 170.30859375 18.82421875 C170.00373047 19.95408203 169.69886719 21.08394531 169.38476562 22.24804688 C169.07216797 23.38306641 168.75957031 24.51808594 168.4375 25.6875 C168.12103516 26.86505859 167.80457031 28.04261719 167.47851562 29.25585938 C165.13636533 37.86363467 165.13636533 37.86363467 164 39 C161.26105915 39.08858646 158.5474673 39.11523479 155.80859375 39.09765625 C154.98875504 39.0962413 154.16891632 39.09482635 153.32423401 39.09336853 C150.69528618 39.08775289 148.06642227 39.07519779 145.4375 39.0625 C143.65950643 39.05748701 141.88151154 39.05292376 140.10351562 39.04882812 C135.73564455 39.03777839 131.36783652 39.02050331 127 39 C127.60835693 40.17755859 127.60835693 40.17755859 128.22900391 41.37890625 C131.01520489 46.84566231 133.65126541 52.10689029 135.375 58 C135.85066406 59.5778125 135.85066406 59.5778125 136.3359375 61.1875 C137 64 137 64 137 68 C155.315 68.495 155.315 68.495 174 69 C171.73696145 81.44671202 171.73696145 81.44671202 170.125 87.375 C169.66480469 89.08816406 169.66480469 89.08816406 169.1953125 90.8359375 C167.54599389 96.58160298 165.75795763 102.28663771 164 108 C154.76 108 145.52 108 136 108 C135.67 110.97 135.34 113.94 135 117 C130.52739709 135.75607672 118.91072824 151.31867195 103 162 C83.28171642 174 83.28171642 174 73 174 C78.51149231 181.13890145 84.08518076 188.18949431 90 195 C94.47439786 200.15388888 98.74344573 205.42761627 102.92578125 210.8203125 C106.02305769 214.79871069 109.2201611 218.67109523 112.5 222.5 C119.28939327 230.43092946 125.7718133 238.62063039 132 247 C127.63446666 256.35680644 120.0131714 264.9799558 111 270 C100.71880432 273.39260422 88.34903242 272.75331854 78 270 C72.62944235 267.26305109 69.79274827 263.04366458 67.01953125 257.83349609 C65.50423929 255.10843799 63.5292267 252.85686226 61.5 250.5 C60.78585938 249.62085938 60.07171875 248.74171875 59.3359375 247.8359375 C55.64107329 243.35019934 51.84039178 238.95645166 48.05078125 234.55078125 C41.0321361 226.39024023 34.10739804 218.1605176 27.3125 209.8125 C24.2756723 206.1190609 21.18039045 202.47701514 18.08374023 198.83374023 C14.45960838 194.56250969 10.89967694 190.24491172 7.4140625 185.859375 C5.59107714 183.70011079 3.77382879 181.74614099 1.7734375 179.765625 C-3.70712599 174.21346175 -7.91009034 169.27485614 -9 161.375 C-8.06372568 151.0047442 -0.86102739 143.53068494 6.7421875 136.94140625 C16.17584618 130.072134 26.81563693 131.35458146 37.94628906 131.93896484 C46.36639893 132.10725933 54.83930536 129.2939927 61.31640625 123.84765625 C65.22546178 119.55767187 68.16810099 114.49569702 70 109 C43.00890244 107.94611031 16.00610668 107.4863846 -11 107 C-10.52678616 101.55570608 -10.00564339 96.26010776 -8.66015625 90.94921875 C-8.40169922 89.92119141 -8.14324219 88.89316406 -7.87695312 87.83398438 C-7.60818359 86.79564453 -7.33941406 85.75730469 -7.0625 84.6875 C-6.66514648 83.10098633 -6.66514648 83.10098633 -6.25976562 81.48242188 C-5.06931535 76.80037797 -3.80214769 72.50536923 -2 68 C21.76 68.33 45.52 68.66 70 69 C68.02 66.36 66.04 63.72 64 61 C64 60.34 64 59.68 64 59 C61.25280902 57.61090118 58.48987177 56.27425786 55.6875 55 C54.96949219 54.67 54.25148438 54.34 53.51171875 54 C45.91818714 50.9767588 39.20706618 50.66503764 31.06640625 50.5859375 C29.83333237 50.56657135 28.60025848 50.5472052 27.32981873 50.5272522 C23.40744861 50.46767048 19.48504881 50.42115612 15.5625 50.375 C12.89645297 50.33786031 10.23046095 50.29774779 7.56445312 50.2578125 C1.04307633 50.16198641 -5.47837377 50.0768765 -12 50 C-10.44713951 42.14042239 -8.77800002 34.31222736 -7.02319336 26.49536133 C-6.71576786 25.12212895 -6.41043265 23.74842698 -6.10717773 22.37426758 C-5.66070831 20.3513158 -5.20797065 18.32985272 -4.75390625 16.30859375 C-4.48908447 15.12064209 -4.2242627 13.93269043 -3.95141602 12.70874023 C-2.84905491 8.41159691 -1.40287707 4.20863121 0 0 Z " fill="#FDE98F" transform="translate(175,117)"/>
<path d="M0 0 C2.53180164 6.95701368 4.00403786 13.76371596 5.1875 21.0625 C5.36474609 22.11888672 5.54199219 23.17527344 5.72460938 24.26367188 C6.15618309 26.84145002 6.58116655 29.42012674 7 32 C7.66 32 8.32 32 9 32 C11.25869942 53.11096037 10.29530722 74.05920115 7 95 C6.79914795 96.29164063 6.79914795 96.29164063 6.59423828 97.609375 C3.35333439 117.59691319 -2.806288 137.49673137 -11 156 C-11.42418213 156.97743164 -11.42418213 156.97743164 -11.85693359 157.97460938 C-21.53176141 180.1332544 -35.08304955 199.89028648 -51 218 C-52.16015625 219.32837891 -52.16015625 219.32837891 -53.34375 220.68359375 C-61.8802334 230.31719562 -70.84336679 239.08323267 -81 247 C-81.56928223 247.45101074 -82.13856445 247.90202148 -82.72509766 248.36669922 C-132.8799556 287.97817168 -197.47630651 306.17360565 -260.9163208 298.9581604 C-272.10412703 297.60661665 -283.05385834 295.69676019 -294 293 C-288.05430023 285.99964434 -281.91065714 279.22888657 -275.55395508 272.59960938 C-274.22671502 271.200288 -272.91502032 269.78605583 -271.61938477 268.35742188 C-260.86116182 256.52269616 -260.86116182 256.52269616 -254.2434082 255.3137207 C-250.40017188 255.59092204 -246.7784978 256.25632969 -243 257 C-240.36780604 257.11510622 -237.73236484 257.17022961 -235.09765625 257.16796875 C-233.78361816 257.17538086 -232.46958008 257.18279297 -231.11572266 257.19042969 C-229.76464811 257.19067597 -228.41357282 257.1896783 -227.0625 257.1875 C-226.36211609 257.18689575 -225.66173218 257.1862915 -224.94012451 257.18566895 C-214.82631634 257.16203519 -204.97105303 256.91497045 -195 255 C-194.3409668 254.88172852 -193.68193359 254.76345703 -193.00292969 254.64160156 C-153.99447257 247.52776228 -120.52141654 229.16129119 -92 202 C-90.94039063 201.01966797 -90.94039063 201.01966797 -89.859375 200.01953125 C-57.98268273 169.63300955 -38.0183626 121.72213261 -36.76300049 78.07841492 C-36.64681317 72.22778566 -36.67527964 66.378337 -36.76171875 60.52734375 C-36.76888916 59.30249268 -36.77605957 58.0776416 -36.78344727 56.81567383 C-36.945344 53.9630425 -37.24321197 51.69085835 -37.87084961 48.95581055 C-38.98321615 43.4215438 -39.61619331 38.68093831 -36.59085083 33.6625061 C-31.76580117 27.45775791 -25.96461802 22.23386522 -20.1875 16.9375 C-18.46151383 15.28474632 -16.73946193 13.62787367 -15.02148438 11.96679688 C-11.88626748 8.96444131 -8.74238486 5.97392422 -5.54760742 3.03491211 C-4.90949631 2.44665146 -4.27138519 1.85839081 -3.61393738 1.25230408 C-2 0 -2 0 0 0 Z " fill="#FCD735" transform="translate(489,185)"/>
<path d="M0 0 C0.33 0 0.66 0 1 0 C1.18819772 4.14034988 0.88042529 7.71674846 0.01953125 11.76953125 C-1.73062215 22.05675198 -1.439605 32.53238832 -1.4375 42.9375 C-1.4385675 44.05160248 -1.43963501 45.16570496 -1.44073486 46.31356812 C-1.41616676 64.06721058 -0.34364544 80.72003229 4 98 C4.22993652 98.9492334 4.45987305 99.8984668 4.69677734 100.87646484 C14.21341437 139.38079173 32.87258568 174.29735784 59 204 C59.79664062 204.90878906 60.59328125 205.81757813 61.4140625 206.75390625 C68.85208018 215.12487116 76.52604537 222.74540791 85.33203125 229.68261719 C86.503035 230.60749076 87.6693073 231.53837139 88.83203125 232.47363281 C116.33015956 254.55755049 148.4277377 270.6809794 182.87670898 278.49682617 C184.50124154 278.88180508 186.11954569 279.29315485 187.73461914 279.71606445 C247.23641669 295.24224709 312.60525004 281.21675416 365 251 C370.16882368 247.90005653 375.13349457 244.55336698 380 241 C380.54769043 240.60103516 381.09538086 240.20207031 381.65966797 239.79101562 C398.91351098 227.09970794 414.79626036 212.90922963 428 196 C428.77730469 195.03964844 429.55460937 194.07929688 430.35546875 193.08984375 C468.6591337 144.92100595 488.04346448 79.84411676 481.0625 18.5625 C480.66522394 15.25949661 480.2496214 11.99328515 479.4375 8.76171875 C478.71846995 5.86633883 478.94297742 2.96517424 479 0 C479.33 0 479.66 0 480 0 C480.65140456 3.79073089 481.29508257 7.58273657 481.9375 11.375 C482.11990234 12.43589844 482.30230469 13.49679688 482.49023438 14.58984375 C482.66748047 15.64042969 482.84472656 16.69101563 483.02734375 17.7734375 C483.27085571 19.20308838 483.27085571 19.20308838 483.51928711 20.66162109 C484.64969956 28.51193085 485.16340564 36.26734601 485.203125 44.1953125 C485.21018463 45.13746613 485.21724426 46.07961975 485.22451782 47.05032349 C485.45352121 86.58655794 485.45352121 86.58655794 482 104 C481.70198486 105.53430664 481.70198486 105.53430664 481.39794922 107.09960938 C476.73665658 130.40956415 469.4656514 152.6556366 459 174 C458.61086426 174.79744629 458.22172852 175.59489258 457.82080078 176.41650391 C447.70895757 196.90945285 434.86402821 215.79269767 419.28515625 232.52734375 C417.37096117 234.59860099 415.55412389 236.70914701 413.75 238.875 C380.71098126 276.71125331 332.21296182 299.5046127 284 310 C283.11135254 310.1964209 282.22270508 310.3928418 281.30712891 310.59521484 C252.90594409 316.52513255 219.20812541 315.26497428 191 309 C189.93265625 308.76394043 188.8653125 308.52788086 187.765625 308.28466797 C147.36623678 299.00453599 109.83739315 279.55276024 79.47265625 251.28515625 C77.40139901 249.37096117 75.29085299 247.55412389 73.125 245.75 C26.92871194 205.29296565 -0.16109923 140.14874855 -5 80 C-5.14692069 76.60114623 -5.18616162 73.20644911 -5.203125 69.8046875 C-5.21344254 68.39036942 -5.21344254 68.39036942 -5.22396851 66.94747925 C-5.24103997 63.92327969 -5.24742173 60.89924517 -5.25 57.875 C-5.25167175 56.84620728 -5.25334351 55.81741455 -5.25506592 54.75744629 C-5.25689141 36.04911899 -3.78066373 18.33549111 0 0 Z " fill="#E88102" transform="translate(16,199)"/>
<path d="M0 0 C0.76341705 0.00149048 1.52683411 0.00298096 2.31338501 0.0045166 C14.01066089 0.04546585 25.25413227 0.66990859 36.6875 3.3125 C37.35620117 3.45703613 38.02490234 3.60157227 38.71386719 3.75048828 C43.42182686 4.7739085 48.05803093 5.98018187 52.6875 7.3125 C53.37070312 7.50650391 54.05390625 7.70050781 54.7578125 7.90039062 C88.09956456 17.58918389 115.62048557 36.72228961 139.6875 61.3125 C135.70860415 61.3125 134.64386675 59.91804315 131.5625 57.4375 C93.98436438 28.22502193 42.92206022 16.653808 -3.91015625 21.9609375 C-52.71074764 28.61504569 -99.03859966 53.64915331 -129.30712891 92.90112305 C-155.07171434 127.06639522 -169.50807482 166.27531194 -169.625 209.1875 C-169.63055908 210.45819336 -169.63611816 211.72888672 -169.6418457 213.03808594 C-169.55324148 224.72172673 -168.03528276 236.0898119 -165.875 247.5625 C-165.64941406 248.78453125 -165.42382812 250.0065625 -165.19140625 251.265625 C-159.65886334 278.10971419 -147.95820216 302.8530639 -131.46655273 324.63110352 C-130.21723093 326.45130222 -129.25691449 328.31952166 -128.3125 330.3125 C-160.70740054 303.43162508 -181.1183325 263.47797996 -188.3125 222.3125 C-188.48982666 221.30630615 -188.66715332 220.3001123 -188.84985352 219.26342773 C-190.35474859 209.88244631 -190.67193677 200.72274119 -190.625 191.25 C-190.62317719 190.48381348 -190.62135437 189.71762695 -190.61947632 188.92822266 C-190.56994893 176.52540268 -189.93029328 164.47390185 -187.3125 152.3125 C-187.14621094 151.53132812 -186.97992188 150.75015625 -186.80859375 149.9453125 C-175.78898351 100.15299956 -144.97860912 56.81034698 -102.25 29.25 C-71.26955674 9.83958717 -36.4771546 -0.17754566 0 0 Z " fill="#E88102" transform="translate(256.3125,54.6875)"/>
<path d="M0 0 C48.18 0 96.36 0 146 0 C141.06802459 5.75397132 136.06472069 11.38831425 130.94848633 16.97436523 C130.50816259 17.45535109 130.06783886 17.93633694 129.61417198 18.43189812 C120.87586393 27.9671607 111.98564292 37.35466361 103.03448963 46.69006252 C97.36086981 52.61384004 91.74430955 58.57592597 86.24243164 64.65991211 C46.21689659 108.83520471 46.21689659 108.83520471 21.70876217 110.31194019 C10.66124842 110.50467755 -0.19299158 109.2114615 -11 107 C-10.84842086 105.40104774 -10.6944763 103.80231959 -10.53953552 102.20368958 C-10.4540618 101.31337445 -10.36858809 100.42305933 -10.28052425 99.50576496 C-9.95337851 96.58355653 -9.38208843 93.79881989 -8.66015625 90.94921875 C-8.40169922 89.92119141 -8.14324219 88.89316406 -7.87695312 87.83398438 C-7.60818359 86.79564453 -7.33941406 85.75730469 -7.0625 84.6875 C-6.66514648 83.10098633 -6.66514648 83.10098633 -6.25976562 81.48242188 C-5.06931535 76.80037797 -3.80214769 72.50536923 -2 68 C21.76 68.33 45.52 68.66 70 69 C68.02 66.36 66.04 63.72 64 61 C64 60.34 64 59.68 64 59 C61.25280902 57.61090118 58.48987177 56.27425786 55.6875 55 C54.96949219 54.67 54.25148438 54.34 53.51171875 54 C45.91818714 50.9767588 39.20706618 50.66503764 31.06640625 50.5859375 C29.83333237 50.56657135 28.60025848 50.5472052 27.32981873 50.5272522 C23.40744861 50.46767048 19.48504881 50.42115612 15.5625 50.375 C12.89645297 50.33786031 10.23046095 50.29774779 7.56445312 50.2578125 C1.04307633 50.16198641 -5.47837377 50.0768765 -12 50 C-10.44713951 42.14042239 -8.77800002 34.31222736 -7.02319336 26.49536133 C-6.71576786 25.12212895 -6.41043265 23.74842698 -6.10717773 22.37426758 C-5.66070831 20.3513158 -5.20797065 18.32985272 -4.75390625 16.30859375 C-4.48908447 15.12064209 -4.2242627 13.93269043 -3.95141602 12.70874023 C-2.84905491 8.41159691 -1.40287707 4.20863121 0 0 Z " fill="#FDE168" transform="translate(175,117)"/>
<path d="M0 0 C1.46049774 0.00273422 1.46049774 0.00273422 2.95050049 0.00552368 C16.9687164 0.04974564 30.60882275 0.45111782 44.375 3.3125 C45.23996094 3.47878906 46.10492188 3.64507812 46.99609375 3.81640625 C61.85473568 6.69433546 76.16281913 11.13570703 90.375 16.3125 C91.2817749 16.61712158 92.1885498 16.92174316 93.12280273 17.2355957 C93.86602783 17.59097412 94.60925293 17.94635254 95.375 18.3125 C95.705 19.3025 96.035 20.2925 96.375 21.3125 C91.19430903 26.70198629 85.98933461 32.0667426 80.75228882 37.40152073 C78.32103976 39.8796848 75.89883895 42.36548356 73.49560547 44.87084961 C70.73039119 47.75282495 67.92926259 50.59740823 65.125 53.44140625 C64.26946533 54.34339249 63.41393066 55.24537872 62.5324707 56.17469788 C56.59751646 62.11457071 56.59751646 62.11457071 53.18716431 62.66671753 C51.11572266 62.42553711 51.11572266 62.42553711 47.375 61.3125 C45.92746338 61.08240234 45.92746338 61.08240234 44.45068359 60.84765625 C43.56719238 60.69167969 42.68370117 60.53570312 41.7734375 60.375 C40.78859375 60.20226563 39.80375 60.02953125 38.7890625 59.8515625 C37.78617187 59.67367187 36.78328125 59.49578125 35.75 59.3125 C33.73700752 58.95817224 31.72398749 58.60400092 29.7109375 58.25 C28.82970215 58.09402344 27.9484668 57.93804687 27.04052734 57.77734375 C25.72109131 57.54724609 25.72109131 57.54724609 24.375 57.3125 C23.42826416 57.13235352 22.48152832 56.95220703 21.50610352 56.76660156 C15.04463132 55.82949916 8.45743723 56.07135988 1.9375 56.0625 C1.16087006 56.06016357 0.38424011 56.05782715 -0.41592407 56.05541992 C-13.67942727 56.04036856 -26.53835001 57.05293453 -39.625 59.3125 C-34.74775563 53.4327495 -29.48613122 48.04369183 -24.0703125 42.66015625 C-23.16876434 41.76002304 -22.26721619 40.85988983 -21.33834839 39.93247986 C-18.96301783 37.56177177 -16.58554595 35.19325485 -14.20697021 32.82580566 C-11.77155283 30.40069272 -9.33903088 27.97267915 -6.90625 25.54492188 C-2.14847231 20.79812872 2.6121538 16.05420719 7.375 11.3125 C-5.85304283 11.1450812 -18.87331973 11.04485514 -32 12.875 C-33.29454102 13.04990967 -34.58908203 13.22481934 -35.92285156 13.4050293 C-48.80636776 15.23198609 -61.23376712 18.38289755 -73.625 22.3125 C-74.46885254 22.57901367 -75.31270508 22.84552734 -76.18212891 23.12011719 C-119.12514218 37.04710867 -159.73227372 64.71513953 -187.625 100.3125 C-188.40359375 101.27414063 -189.1821875 102.23578125 -189.984375 103.2265625 C-209.79542893 128.14811124 -223.71273272 156.51346559 -232.36791992 187.06347656 C-232.76974487 188.46098145 -232.76974487 188.46098145 -233.1796875 189.88671875 C-233.41155762 190.71776123 -233.64342773 191.54880371 -233.88232422 192.4050293 C-234.625 194.3125 -234.625 194.3125 -236.625 195.3125 C-236.96617527 188.08106774 -235.84072316 182.1565683 -233.75 175.25 C-233.28352051 173.68995239 -233.28352051 173.68995239 -232.80761719 172.09838867 C-225.57123418 148.67174369 -215.11498634 125.18674357 -200.625 105.3125 C-200.19106934 104.71163574 -199.75713867 104.11077148 -199.31005859 103.49169922 C-185.99350691 85.11348741 -171.49000263 68.39683144 -153.625 54.3125 C-152.87347656 53.68214844 -152.12195313 53.05179688 -151.34765625 52.40234375 C-119.16387811 25.61003614 -78.82951761 8.75647591 -37.625 2.3125 C-35.94591553 2.04651001 -35.94591553 2.04651001 -34.23291016 1.77514648 C-22.81672527 0.14850302 -11.5185687 -0.04470638 0 0 Z " fill="#FDEB99" transform="translate(255.625,-0.3125)"/>
<path d="M0 0 C6.24646393 1.89762507 11.98650701 4.2519805 17.75 7.3125 C18.55928955 7.74199951 19.3685791 8.17149902 20.20239258 8.61401367 C41.61269971 20.24412692 60.43487037 35.22989746 78 52 C78.67417969 52.63292969 79.34835937 53.26585937 80.04296875 53.91796875 C85.18006525 58.86697934 89.57396286 64.41839652 94 70 C94.79535156 70.99 95.59070313 71.98 96.41015625 73 C101.25818736 79.14647368 105.7641128 85.45616567 110.0625 92 C110.53993652 92.71816895 111.01737305 93.43633789 111.50927734 94.17626953 C113.81516868 97.74909716 115.58509014 100.6646153 116 105 C114.02 106.485 114.02 106.485 112 108 C111.09121094 106.60201172 111.09121094 106.60201172 110.1640625 105.17578125 C93.23381361 78.70446201 93.23381361 78.70446201 71 57 C67.79311983 57.40299796 66.15496075 58.47464153 63.91552734 60.74389648 C63.34168304 61.31796738 62.76783875 61.89203827 62.17660522 62.48350525 C61.56918488 63.10640945 60.96176453 63.72931366 60.3359375 64.37109375 C59.70265533 65.00862076 59.06937317 65.64614777 58.41690063 66.30299377 C56.39578145 68.34089304 54.38533481 70.38896691 52.375 72.4375 C51.01371345 73.81383643 49.65174197 75.18949578 48.2890625 76.56445312 C45.29118313 79.59182779 42.29999907 82.62564163 39.31454468 85.66526794 C38.21480328 86.781898 37.1082179 87.8917821 36 89 C34.6696875 87.576875 34.6696875 87.576875 33.3125 86.125 C12.81645797 65.79194837 -14.63184684 52.22047091 -42 44 C-38.27672318 40.26839059 -34.5360089 36.5546678 -30.7922821 32.84358215 C-27.46285848 29.54081908 -24.13863015 26.23284845 -20.81469727 22.92456055 C-19.05604425 21.17604009 -17.29561145 19.429308 -15.53344727 17.68432617 C-12.99028769 15.16529031 -10.45352237 12.6399698 -7.91796875 10.11328125 C-7.12432419 9.32995926 -6.33067963 8.54663727 -5.51298523 7.73957825 C-4.78835587 7.01509995 -4.0637265 6.29062164 -3.31713867 5.54418945 C-2.67491867 4.90641068 -2.03269867 4.2686319 -1.37101746 3.61152649 C0.21599436 2.09875224 0.21599436 2.09875224 0 0 Z " fill="#FDEB98" transform="translate(351,19)"/>
<path d="M0 0 C1.39984061 2.79968121 0.56464246 4.8845074 0.02001953 7.86352539 C-4.58337854 33.76193831 -3.8156821 62.29308641 3.44921875 87.58984375 C4.05741345 90.25123475 4.2641992 92.2759089 4 95 C2.55737305 97.04389954 2.55737305 97.04389954 0.51171875 99.0559082 C-0.24906982 99.81631912 -1.0098584 100.57673004 -1.79370117 101.36018372 C-3.04050659 102.5682795 -3.04050659 102.5682795 -4.3125 103.80078125 C-5.15594971 104.63715622 -5.99939941 105.47353119 -6.8684082 106.33525085 C-9.56744479 109.0062791 -12.28333772 111.65941203 -15 114.3125 C-16.83186547 116.11929136 -18.66260939 117.92722059 -20.4921875 119.73632812 C-24.98185674 124.17084205 -29.48549285 128.59078233 -34 133 C-37 132 -37 132 -37.99560547 130.15258789 C-38.28322754 129.35071045 -38.57084961 128.54883301 -38.8671875 127.72265625 C-39.35590332 126.3778418 -39.35590332 126.3778418 -39.85449219 125.00585938 C-40.19125977 124.03455078 -40.52802734 123.06324219 -40.875 122.0625 C-41.22723633 121.06412109 -41.57947266 120.06574219 -41.94238281 119.03710938 C-46.30720208 106.48275294 -49.77750297 93.92503819 -52.3125 80.875 C-52.48426758 80.029375 -52.65603516 79.18375 -52.83300781 78.3125 C-53.33652335 75.54579252 -53.6756618 72.79379311 -54 70 C-54.15957687 68.81511993 -54.31915375 67.63023987 -54.48356628 66.40945435 C-55.00868755 59.48962508 -55.0908224 54.37704029 -50.54559803 48.84684563 C-47.87905756 45.97151863 -45.05978987 43.29250987 -42.1875 40.625 C-40.9733271 39.44073143 -39.76268397 38.25283423 -38.55541992 37.06152344 C-35.39365476 33.96037142 -32.1868914 30.91031366 -28.96765137 27.86901855 C-25.6811501 24.74726033 -22.44040378 21.5787454 -19.1953125 18.4140625 C-12.84038465 12.22987753 -6.43684819 6.09879293 0 0 Z " fill="#FDEB99" transform="translate(69,205)"/>
<path d="M0 0 C-0.31413357 1.92245739 -0.63001699 3.8446289 -0.94664001 5.76667786 C-1.12236007 6.83711743 -1.29808012 7.90755701 -1.47912502 9.01043415 C-2.0581983 12.33402959 -2.80908686 15.56830332 -3.69140625 18.82421875 C-3.99626953 19.95408203 -4.30113281 21.08394531 -4.61523438 22.24804688 C-4.92783203 23.38306641 -5.24042969 24.51808594 -5.5625 25.6875 C-5.87896484 26.86505859 -6.19542969 28.04261719 -6.52148438 29.25585938 C-8.86363467 37.86363467 -8.86363467 37.86363467 -10 39 C-12.73894085 39.08858646 -15.4525327 39.11523479 -18.19140625 39.09765625 C-19.01124496 39.0962413 -19.83108368 39.09482635 -20.67576599 39.09336853 C-23.30471382 39.08775289 -25.93357773 39.07519779 -28.5625 39.0625 C-30.34049357 39.05748701 -32.11848846 39.05292376 -33.89648438 39.04882812 C-38.26435545 39.03777839 -42.63216348 39.02050331 -47 39 C-46.34 40.051875 -45.68 41.10375 -45 42.1875 C-43.0753378 45.25493038 -42.36373101 47.38185901 -43 51 C-44.74085495 53.2081719 -46.41081967 55.04378391 -48.41601562 56.98364258 C-48.99147629 57.55983337 -49.56693695 58.13602417 -50.15983582 58.72967529 C-52.06369506 60.63005287 -53.98464633 62.51211213 -55.90625 64.39453125 C-57.23013108 65.70908636 -58.55291207 67.02475022 -59.87463379 68.34147644 C-63.35555364 71.80330994 -66.85122683 75.24986669 -70.35015869 78.69348145 C-73.91823214 82.21039863 -77.47218488 85.74152114 -81.02734375 89.27148438 C-88.00446235 96.1949863 -94.99724532 103.10243548 -102 110 C-102.495 109.01 -102.495 109.01 -103 108 C-113.23 108 -123.46 108 -134 108 C-132.19137331 104.38274661 -130.73457353 102.43521591 -127.99966431 99.57073975 C-127.16230743 98.69016907 -126.32495056 97.80959839 -125.46221924 96.90234375 C-124.53182374 95.9343708 -123.60121344 94.96660427 -122.67041016 93.99902344 C-121.69070712 92.97402713 -120.71123082 91.94881406 -119.73196411 90.92340088 C-110.7595964 81.54590096 -101.69452451 72.25725463 -92.60672951 62.99172592 C-86.50814896 56.77120519 -80.43857101 50.52724686 -74.43603516 44.21386719 C-69.18839474 38.69448836 -63.89190669 33.22780985 -58.53256452 27.816746 C-55.7036653 24.95734337 -52.90309674 22.07983724 -50.15968704 19.13811493 C-34.81134479 2.72656444 -23.27842226 -3.85419743 0 0 Z " fill="#FDF0B1" transform="translate(349,117)"/>
<path d="M0 0 C8.4274814 46.42639307 -2.56115344 97.44492822 -29.31640625 136.2421875 C-30.20647653 137.49796545 -31.10087815 138.75068689 -32 140 C-32.63204346 140.88220215 -32.63204346 140.88220215 -33.27685547 141.78222656 C-39.27305747 150.05656388 -45.95900906 157.61529205 -53 165 C-53.72703125 165.77988281 -54.4540625 166.55976563 -55.203125 167.36328125 C-85.70661256 199.16599143 -132.57920365 219.7554322 -176.56811523 221.10986328 C-179.93191963 221.15977198 -183.29319636 221.18569628 -186.65722656 221.18530273 C-188.7326331 221.18748177 -190.80749988 221.2056848 -192.8828125 221.22460938 C-201.75811468 221.26054337 -210.24350684 220.51462274 -219 219 C-217.54414431 215.62695252 -216.87534107 214.15700697 -214 212 C-209.43256148 211.25513715 -204.95275475 211.42626064 -200.35025024 211.6449585 C-196.49041368 211.82218197 -192.62879475 211.87166889 -188.765625 211.9296875 C-188.00256546 211.94335358 -187.23950592 211.95701965 -186.45332336 211.97109985 C-139.34442205 212.63574087 -94.11603472 188.94015143 -60.7746582 157.10864258 C-48.9644137 145.57135461 -39.13472177 132.3494471 -31 118 C-30.65018066 117.40380859 -30.30036133 116.80761719 -29.93994141 116.19335938 C-19.8961319 99.00069472 -12.7919476 79.54421111 -9 60 C-8.85336914 59.29214355 -8.70673828 58.58428711 -8.55566406 57.85498047 C-6.69456319 48.5714891 -5.89690251 39.47430108 -5.9921875 30.015625 C-5.99943848 29.22916092 -6.00668945 28.44269684 -6.01416016 27.63240051 C-6.06025541 23.66282561 -6.14747445 19.69860764 -6.28613281 15.73120117 C-6.31868319 14.25700581 -6.35092343 12.78280356 -6.3828125 11.30859375 C-6.42809082 9.99689209 -6.47336914 8.68519043 -6.52001953 7.33374023 C-6 4 -6 4 -3.53857422 1.54321289 C-1 0 -1 0 0 0 Z " fill="#FDEA96" transform="translate(451,222)"/>
<path d="M0 0 C26.4 0 52.8 0 80 0 C78.02 2.31 76.04 4.62 74 7 C72.68251397 8.57886641 71.36696272 10.1593507 70.05395508 11.74194336 C65.1209074 17.60941777 60.03361061 23.3260788 54.8125 28.9375 C54.34692562 29.43849339 53.88135124 29.93948677 53.40166855 30.45566177 C42.50423459 42.0831871 32.33306329 52.09277442 15.57829285 52.98951721 C6.28179372 53.04758359 -2.91338679 51.89913138 -12 50 C-10.48162538 42.13418732 -8.77780674 34.31136637 -7.02319336 26.49536133 C-6.71576786 25.12212895 -6.41043265 23.74842698 -6.10717773 22.37426758 C-5.66070831 20.3513158 -5.20797065 18.32985272 -4.75390625 16.30859375 C-4.48908447 15.12064209 -4.2242627 13.93269043 -3.95141602 12.70874023 C-2.84905491 8.41159691 -1.40287707 4.20863121 0 0 Z " fill="#FDF0B2" transform="translate(175,117)"/>
<path d="M0 0 C4.03782207 3.78545819 7.41988277 7.94068023 10.84765625 12.28125 C12.93516651 14.91810507 15.05381136 17.52542338 17.1875 20.125 C17.92484375 21.02734375 18.6621875 21.9296875 19.421875 22.859375 C21.39979438 25.27542098 23.3941143 27.67742638 25.390625 30.078125 C26.57305617 31.5103015 27.75534832 32.94259279 28.9375 34.375 C29.50557373 35.05320801 30.07364746 35.73141602 30.65893555 36.43017578 C31.19301025 37.07970215 31.72708496 37.72922852 32.27734375 38.3984375 C32.75421631 38.97255371 33.23108887 39.54666992 33.72241211 40.13818359 C35.2172836 42.31664527 36.09706308 44.52469367 37 47 C30.08370101 56.49593059 22.02575698 67.36623897 9.83955383 69.61076355 C0.48847334 70.80550382 -10.97325866 71.10329572 -19.50341797 66.7109375 C-23.33213445 63.73717713 -25.68242612 60.12496738 -27.93652344 55.88183594 C-29.64245181 52.86317296 -31.85667428 50.43195973 -34.125 47.8125 C-36.22172964 45.25111049 -38.16257365 42.75613952 -40 40 C-39.50982895 39.58047562 -39.0196579 39.16095123 -38.51463318 38.72871399 C-33.64907955 34.52394908 -29.01160516 30.15891737 -24.47265625 25.60546875 C-23.79827011 24.93203934 -23.12388397 24.25860992 -22.42906189 23.56477356 C-21.02040932 22.1567956 -19.61299501 20.74757776 -18.20678711 19.3371582 C-16.04720227 17.17216396 -13.88226118 15.01262744 -11.71679688 12.85351562 C-10.3434288 11.47948763 -8.97037049 10.10514994 -7.59765625 8.73046875 C-6.94982681 8.08466354 -6.30199738 7.43885834 -5.63453674 6.77348328 C-4.74241737 5.87663567 -4.74241737 5.87663567 -3.83227539 4.96166992 C-3.30791397 4.43651291 -2.78355255 3.9113559 -2.24330139 3.37028503 C-0.88748638 1.99982008 -0.88748638 1.99982008 0 0 Z " fill="#FCD735" transform="translate(270,319)"/>
<path d="M0 0 C2.04687058 0.01005913 4.09374599 0.01917975 6.140625 0.02734375 C11.09387219 0.04910355 16.04688076 0.08346843 21 0.125 C21 0.455 21 0.785 21 1.125 C20.175 1.310625 19.35 1.49625 18.5 1.6875 C15.04545707 3.10633013 13.96568222 4.07643246 11.47265625 6.671875 C6.51315557 11.08845162 2.35338163 10.97802471 -4.0625 10.8125 C-28.35237484 11.04142694 -51.85346675 14.78459451 -75 22.125 C-75.84385254 22.39151367 -76.68770508 22.65802734 -77.55712891 22.93261719 C-120.50014218 36.85960867 -161.10727372 64.52763953 -189 100.125 C-189.77859375 101.08664063 -190.5571875 102.04828125 -191.359375 103.0390625 C-211.17042893 127.96061124 -225.08773272 156.32596559 -233.74291992 186.87597656 C-234.14474487 188.27348145 -234.14474487 188.27348145 -234.5546875 189.69921875 C-234.78655762 190.53026123 -235.01842773 191.36130371 -235.25732422 192.2175293 C-236 194.125 -236 194.125 -238 195.125 C-238.34117527 187.89356774 -237.21572316 181.9690683 -235.125 175.0625 C-234.65852051 173.50245239 -234.65852051 173.50245239 -234.18261719 171.91088867 C-226.94623418 148.48424369 -216.48998634 124.99924357 -202 105.125 C-201.56606934 104.52413574 -201.13213867 103.92327148 -200.68505859 103.30419922 C-187.36850691 84.92598741 -172.86500263 68.20933144 -155 54.125 C-154.24847656 53.49464844 -153.49695313 52.86429688 -152.72265625 52.21484375 C-120.52763284 25.41317469 -80.21031722 8.59371718 -39 2.125 C-37.8965625 1.94549805 -36.793125 1.76599609 -35.65625 1.58105469 C-23.76553542 -0.14590104 -11.99516134 -0.10367638 0 0 Z " fill="#FDEA94" transform="translate(257,-0.125)"/>
<path d="M0 0 C1.40424957 2.69872685 2.55100119 5.37695719 3.55859375 8.24609375 C8.32225833 21.46320522 14.21475291 33.70722168 21 46 C16.92935998 50.8887452 12.65719636 55.47950092 8.140625 59.95703125 C7.51017273 60.58606857 6.87972046 61.2151059 6.23016357 61.86320496 C4.23913737 63.84869041 2.24464486 65.83065061 0.25 67.8125 C-1.10309726 69.16057379 -2.45596394 70.50887906 -3.80859375 71.85742188 C-6.27299453 74.31368711 -8.7386315 76.76869473 -11.20605469 79.22192383 C-12.80593084 80.81271295 -14.40466089 82.40466089 -16 84 C-21.9966828 74.77821049 -27.90668124 65.53662676 -33.0625 55.8125 C-33.41948975 55.14355713 -33.77647949 54.47461426 -34.14428711 53.78540039 C-36.47617096 49.30152568 -38.30050142 44.75965489 -40 40 C-39.50982895 39.58047562 -39.0196579 39.16095123 -38.51463318 38.72871399 C-33.64907955 34.52394908 -29.01160516 30.15891737 -24.47265625 25.60546875 C-23.79827011 24.93203934 -23.12388397 24.25860992 -22.42906189 23.56477356 C-21.02040932 22.1567956 -19.61299501 20.74757776 -18.20678711 19.3371582 C-16.04720227 17.17216396 -13.88226118 15.01262744 -11.71679688 12.85351562 C-10.3434288 11.47948763 -8.97037049 10.10514994 -7.59765625 8.73046875 C-6.94982681 8.08466354 -6.30199738 7.43885834 -5.63453674 6.77348328 C-4.74241737 5.87663567 -4.74241737 5.87663567 -3.83227539 4.96166992 C-3.30791397 4.43651291 -2.78355255 3.9113559 -2.24330139 3.37028503 C-0.88748638 1.99982008 -0.88748638 1.99982008 0 0 Z " fill="#FCD735" transform="translate(73,298)"/>
<path d="M0 0 C9.46731743 3.04478597 9.46731743 3.04478597 13.796875 5.19921875 C14.60479492 5.59995605 15.41271484 6.00069336 16.24511719 6.41357422 C17.07172852 6.83396973 17.89833984 7.25436523 18.75 7.6875 C19.6152832 8.12594238 20.48056641 8.56438477 21.37207031 9.01611328 C26.56815974 11.67980907 31.72195029 14.40472619 36.75 17.375 C37.77609375 17.98085938 38.8021875 18.58671875 39.859375 19.2109375 C40.56578125 19.80132812 41.2721875 20.39171875 42 21 C42 25 42 25 40.82312012 26.65789795 C40.27240845 27.19972717 39.72169678 27.7415564 39.15429688 28.29980469 C38.53365356 28.92014587 37.91301025 29.54048706 37.27355957 30.17962646 C36.59547241 30.83706848 35.91738525 31.4945105 35.21875 32.171875 C34.53067261 32.8542926 33.84259521 33.53671021 33.13366699 34.23980713 C30.93164254 36.41942309 28.71612543 38.58473174 26.5 40.75 C25.00560138 42.22433958 23.51209998 43.69958918 22.01953125 45.17578125 C18.35668561 48.79449998 14.68167744 52.40044646 11 56 C9.9385376 55.46528076 8.8770752 54.93056152 7.78344727 54.37963867 C6.3569714 53.66317342 4.93045558 52.94678771 3.50390625 52.23046875 C2.80833618 51.87980347 2.11276611 51.52913818 1.39611816 51.16784668 C-10.75099741 45.07495195 -23.0243283 40.0455758 -36 36 C-24 24 -12 12 0 0 Z " fill="#FCD735" transform="translate(345,27)"/>
<path d="M0 0 C3.76381862 1.50721148 5.58463482 3.64916931 8.0625 6.8125 C8.84753906 7.79863281 9.63257813 8.78476562 10.44140625 9.80078125 C10.85664551 10.32365723 11.27188477 10.8465332 11.69970703 11.38525391 C13.9137701 14.13474943 16.20930438 16.81432929 18.5 19.5 C21.85520179 23.44586555 25.17223747 27.41644433 28.4375 31.4375 C31.89274457 35.68392758 35.42706576 39.85288424 39 44 C42.61012032 48.1917382 46.18607047 52.40390122 49.6875 56.6875 C50.3677272 57.50192062 51.04795441 58.31634125 51.74879456 59.15544128 C54 62 54 62 55.82066345 64.8795929 C58.85290988 69.37515854 61.16568738 72.47595859 66.50491333 74.00131226 C70.77286878 74.3685736 74.91501608 74.39678743 79.19140625 74.29296875 C80.74797363 74.29489355 82.30454185 74.30167183 83.86106873 74.31306458 C87.93112953 74.32996738 91.99781227 74.28153997 96.06732178 74.21887207 C100.2304052 74.1665293 104.39330039 74.17682483 108.55664062 74.18164062 C116.70574395 74.18193901 124.85160296 74.10733657 133 74 C133 78.95 133 83.9 133 89 C124.09787386 89.34070944 115.200162 89.61504612 106.29295826 89.77718258 C102.15546406 89.85505709 98.02270627 89.96036821 93.88793945 90.1315918 C64.92915345 91.30000101 64.92915345 91.30000101 58.02124023 85.78979492 C55.10595599 82.78187684 52.94590573 79.54273813 51.00987244 75.83988953 C49.49678938 73.0831991 47.48965507 70.80623968 45.4375 68.4375 C44.73496094 67.56996094 44.03242188 66.70242188 43.30859375 65.80859375 C40.58655815 62.49701407 37.79856861 59.2469 35 56 C30.68060414 50.98689941 26.44902564 45.9146229 22.27734375 40.77734375 C19.71795456 37.65603034 17.1138293 34.57570354 14.5 31.5 C0.56637587 15.08022304 0.56637587 15.08022304 -5 7 C-3.35 4.69 -1.7 2.38 0 0 Z " fill="#DB6804" transform="translate(190,313)"/>
<path d="M0 0 C3.44313596 1.58711394 4.73089038 2.69934059 6.47265625 6.10546875 C6.89740234 6.92466797 7.32214844 7.74386719 7.75976562 8.58789062 C8.18966797 9.44576172 8.61957031 10.30363281 9.0625 11.1875 C9.49626953 12.02603516 9.93003906 12.86457031 10.37695312 13.72851562 C11.61337244 16.13925101 12.81298094 18.56462655 14 21 C14.33370605 21.6595166 14.66741211 22.3190332 15.01123047 22.99853516 C16.83692289 26.82512842 17.22369746 28.96122479 16 33 C14.64039612 34.8540802 14.64039612 34.8540802 12.88891602 36.59692383 C12.23476212 37.25723099 11.58060822 37.91753815 10.90663147 38.59785461 C10.19623215 39.2938829 9.48583282 39.98991119 8.75390625 40.70703125 C8.02759506 41.43242599 7.30128387 42.15782074 6.55296326 42.90519714 C5.0184656 44.43366008 3.47911734 45.95726653 1.93530273 47.47631836 C-0.43564217 49.81067085 -2.79011129 52.16071366 -5.14257812 54.51367188 C-6.63447456 55.99574063 -8.12728221 57.4768928 -9.62109375 58.95703125 C-10.32946884 59.66318069 -11.03784393 60.36933014 -11.76768494 61.09687805 C-12.424991 61.74142441 -13.08229706 62.38597076 -13.75952148 63.05004883 C-14.62769753 63.90678947 -14.62769753 63.90678947 -15.51341248 64.78083801 C-17 66 -17 66 -19 66 C-19.35191406 65.01902344 -19.70382812 64.03804688 -20.06640625 63.02734375 C-22.95717207 55.09284025 -26.03428221 47.39118792 -29.90258789 39.87475586 C-32.0620214 35.51671409 -32.0620214 35.51671409 -31.7613678 33.01190186 C-30.87124757 30.65977384 -29.82638395 29.46412018 -28.04077148 27.70019531 C-27.4202037 27.07985413 -26.79963593 26.45951294 -26.16026306 25.82037354 C-25.48733719 25.16293152 -24.81441132 24.5054895 -24.12109375 23.828125 C-23.4344313 23.1457074 -22.74776886 22.46328979 -22.04029846 21.76019287 C-19.84630585 19.58298804 -17.64211084 17.41644719 -15.4375 15.25 C-13.94788366 13.77543029 -12.4589428 12.30017787 -10.97070312 10.82421875 C-7.32159192 7.20817824 -3.66329621 3.60166712 0 0 Z " fill="#FDD836" transform="translate(462,128)"/>
<path d="M0 0 C0.79720459 0.31565918 1.59440918 0.63131836 2.41577148 0.95654297 C3.16181641 1.25093262 3.90786133 1.54532227 4.67651367 1.84863281 C5.80814941 2.3777124 5.80814941 2.3777124 6.96264648 2.91748047 C8.23108398 3.50142578 8.23108398 3.50142578 9.52514648 4.09716797 C10.83225586 4.70818359 10.83225586 4.70818359 12.16577148 5.33154297 C18.48603091 8.2822665 24.74213207 10.90825838 31.41577148 12.95654297 C30.07004262 15.95598201 28.58040047 18.03730476 26.2512207 20.34814453 C25.6107077 20.98850647 24.9701947 21.62886841 24.31027222 22.28863525 C23.62063385 22.96795105 22.93099548 23.64726685 22.22045898 24.34716797 C21.51301544 25.05178162 20.8055719 25.75639526 20.07669067 26.48236084 C17.81937287 28.72849687 15.55519515 30.96757306 13.29077148 33.20654297 C11.75776195 34.72952014 10.22520433 36.25295236 8.69311523 37.77685547 C4.93922576 41.50871112 1.17968234 45.23479648 -2.58422852 48.95654297 C-7.66971089 47.33055625 -12.59903221 45.6362745 -17.42407227 43.32763672 C-18.42374023 42.85003906 -19.4234082 42.37244141 -20.45336914 41.88037109 C-21.46592773 41.38988281 -22.47848633 40.89939453 -23.52172852 40.39404297 C-25.08117187 39.65250977 -25.08117187 39.65250977 -26.67211914 38.89599609 C-34.32371395 35.21705754 -34.32371395 35.21705754 -36.58422852 32.95654297 C-36.15972412 32.60785156 -35.73521973 32.25916016 -35.29785156 31.89990234 C-30.70743024 28.0135552 -26.4707303 23.86656514 -22.29125977 19.55029297 C-21.73324677 18.97730469 -21.17523376 18.40431641 -20.60031128 17.81396484 C-18.2684097 15.41903218 -15.93771074 13.02362095 -13.63037109 10.60498047 C-11.92677711 8.82294865 -10.20490053 7.06045654 -8.47875977 5.30029297 C-7.96094437 4.7483728 -7.44312897 4.19645264 -6.90962219 3.62780762 C-3.25430696 -0.05472524 -3.25430696 -0.05472524 0 0 Z " fill="#FCD735" transform="translate(172.584228515625,420.04345703125)"/>
<path d="M0 0 C0.33 0 0.66 0 1 0 C1.50860505 9.96018232 0.64103076 18.18001887 -2.32324219 27.77490234 C-3.3837743 31.26180337 -4.36382071 34.77115692 -5.35400391 38.27856445 C-6.55770773 42.5223584 -7.78083264 46.76062258 -9 51 C-18.24 51 -27.48 51 -37 51 C-37.495 55.95 -37.495 55.95 -38 61 C-42.19818978 74.67488527 -49.00998714 85.82019415 -59 96 C-59.59167969 96.61617188 -60.18335938 97.23234375 -60.79296875 97.8671875 C-67.86430516 104.64193364 -78.56378513 111.18054374 -88 114 C-90.99709594 113.85700878 -91.92405846 113.0708141 -94.140625 111.00390625 C-94.83671875 110.19824219 -95.5328125 109.39257812 -96.25 108.5625 C-96.95640625 107.75941406 -97.6628125 106.95632813 -98.390625 106.12890625 C-100 104 -100 104 -100 102 C-98.63681641 101.5978125 -98.63681641 101.5978125 -97.24609375 101.1875 C-83.27922866 96.83270309 -70.96304051 90.86072382 -60 81 C-59.36707031 80.44828125 -58.73414063 79.8965625 -58.08203125 79.328125 C-45.61542105 67.76967845 -40.69697005 52.02020356 -37 36 C-27.76 36 -18.52 36 -9 36 C-8.01 31.545 -8.01 31.545 -7 27 C-4.93565578 17.91521388 -2.87680462 8.87014758 0 0 Z " fill="#DB6905" transform="translate(348,189)"/>
<path d="M0 0 C-4.87724437 5.8797505 -10.13886878 11.26880817 -15.5546875 16.65234375 C-16.90700974 18.00254356 -16.90700974 18.00254356 -18.28665161 19.38002014 C-20.66198217 21.75072823 -23.03945405 24.11924515 -25.41802979 26.48669434 C-27.85344717 28.91180728 -30.28596912 31.33982085 -32.71875 33.76757812 C-37.47652769 38.51437128 -42.2371538 43.25829281 -47 48 C-51.9472153 44.12619307 -56.05140756 40.69338051 -58.19140625 34.6171875 C-59.06111722 25.84683898 -56.85141678 20.62795132 -51.25366211 13.78100586 C-43.58200617 5.45103132 -37.28144114 1.00620624 -25.77441406 0.32006836 C-21.06295863 0.31062107 -16.40044423 0.47283807 -11.70703125 0.88793945 C-7.70902877 1.05344118 -4.05601762 -0.11266716 0 0 Z " fill="#FDF0B1" transform="translate(225,248)"/>
<path d="M0 0 C27.39 0 54.78 0 83 0 C78.05807787 12.35480532 78.05807787 12.35480532 75 15 C72.33745879 15.48099905 70.31617958 15.63710787 67.66113281 15.56762695 C66.92903091 15.56835709 66.19692902 15.56908722 65.44264221 15.56983948 C63.02870955 15.56636276 60.61671944 15.52750197 58.203125 15.48828125 C56.52733413 15.47895332 54.8515296 15.47183711 53.17572021 15.46684265 C48.76949275 15.44777102 44.36409215 15.39866951 39.95819092 15.34332275 C35.46052232 15.2921334 30.96271982 15.26932933 26.46484375 15.24414062 C17.64280781 15.19055001 8.82160209 15.10261348 0 15 C0 10.05 0 5.1 0 0 Z " fill="#E48D43" transform="translate(163,225)"/>
<path d="M0 0 C7.79794563 -0.0907103 15.59559799 -0.16395029 23.39392757 -0.20724869 C27.01583037 -0.22803981 30.63735055 -0.25619947 34.2590332 -0.30175781 C37.760394 -0.34552219 41.26138898 -0.36920069 44.7630024 -0.37950897 C46.73542992 -0.3903937 48.70771222 -0.42157019 50.67991638 -0.45318604 C58.06215036 -0.45501331 63.58152273 0.26894308 70 4 C71.0725 4.598125 72.145 5.19625 73.25 5.8125 C76.704006 8.56000477 78.64874192 11.26564894 81 15 C81 15.66 81 16.32 81 17 C78.2080595 17.05474393 75.41722767 17.09402442 72.625 17.125 C71.46291016 17.15013672 71.46291016 17.15013672 70.27734375 17.17578125 C66.18285201 17.20962002 62.46847061 16.95955998 58.47851562 16.01367188 C52.45959742 14.76625106 46.5600855 14.64986606 40.4296875 14.5859375 C39.26744659 14.56657135 38.10520569 14.5472052 36.90774536 14.5272522 C33.230236 14.46792705 29.55269454 14.42126031 25.875 14.375 C23.36717457 14.33677688 20.85936165 14.29772269 18.3515625 14.2578125 C12.23447783 14.16226451 6.1173318 14.07806119 0 14 C0 9.38 0 4.76 0 0 Z " fill="#E48D43" transform="translate(163,168)"/>
<path d="M0 0 C4.34231305 2.08119843 6.64001962 4.70995075 9.6875 8.375 C10.18572266 8.9525 10.68394531 9.53 11.19726562 10.125 C15.76563656 15.55497686 15.76563656 15.55497686 16 19 C11.65698267 27.01560293 3.39598688 35.97976643 -5 40 C-15.4353966 42.97294815 -27.40512625 41.30960814 -38 40 C-36.59490901 36.81740149 -34.93078658 34.68651534 -32.46826172 32.24121094 C-31.74766571 31.52076599 -31.0270697 30.80032104 -30.28463745 30.05804443 C-29.11893723 28.90782806 -29.11893723 28.90782806 -27.9296875 27.734375 C-27.13345978 26.94097717 -26.33723206 26.14757935 -25.51687622 25.33013916 C-22.97424052 22.79869297 -20.42473652 20.27429197 -17.875 17.75 C-16.14928247 16.03431383 -14.42401645 14.31817338 -12.69921875 12.6015625 C-8.47136968 8.39575752 -4.23786131 4.19571493 0 0 Z " fill="#FDEB99" transform="translate(291,347)"/>
<path d="M0 0 C22.04717019 0.12708082 44.69229776 7.17490768 65.25 14.625 C65.9085498 14.85880371 66.56709961 15.09260742 67.24560547 15.33349609 C69.03125 16.015625 69.03125 16.015625 71.75 17.375 C72.245 18.86 72.245 18.86 72.75 20.375 C70.77 22.355 68.79 24.335 66.75 26.375 C61.25059413 24.97089637 55.86374863 23.47582204 50.5625 21.4375 C29.91323764 13.84203706 7.47664637 11.90367553 -14.25 9.375 C-13.29270084 8.24911986 -12.33412105 7.1243285 -11.375 6 C-10.84132813 5.37351562 -10.30765625 4.74703125 -9.7578125 4.1015625 C-6.4449103 0.30803201 -5.07004564 0.05583751 0 0 Z " fill="#FEF4C7" transform="translate(279.25,0.625)"/>
<path d="M0 0 C3.56078411 3.54050918 6.83427649 7.11068255 10 11 C9.59072266 11.33781494 9.18144531 11.67562988 8.75976562 12.02368164 C1.25784862 18.39418466 -5.5699569 25.46108161 -12.5 32.4375 C-13.81226585 33.75479059 -15.12476395 35.07184986 -16.4375 36.38867188 C-19.62768506 39.5897861 -22.81470651 42.79401865 -26 46 C-30.25188851 42.51005391 -33.15241653 39.70946497 -36 35 C-35.59072266 34.66218506 -35.18144531 34.32437012 -34.75976562 33.97631836 C-27.25784862 27.60581534 -20.4300431 20.53891839 -13.5 13.5625 C-12.18773415 12.24520941 -10.87523605 10.92815014 -9.5625 9.61132812 C-6.37231494 6.4102139 -3.18529349 3.20598135 0 0 Z " fill="#FCD736" transform="translate(108,365)"/>
<path d="M0 0 C0.33 0 0.66 0 1 0 C1.71108361 10.25145533 -0.40247601 19.19622762 -3 29 C-3.36288741 30.41513199 -3.72488518 31.83049245 -4.0859375 33.24609375 C-5.4796538 38.63740574 -6.92653117 43.81632793 -9 49 C-19.23 49 -29.46 49 -40 49 C-45 37 -45 37 -46 34 C-33.79 33.67 -21.58 33.34 -9 33 C-8.2575 29.968125 -7.515 26.93625 -6.75 23.8125 C-4.76212602 15.78033481 -2.5699996 7.86793175 0 0 Z " fill="#E48F44" transform="translate(348,122)"/>
<path d="M0 0 C4.57189739 1.76068776 7.34811326 3.77275125 11 7 C9.70860488 9.84125159 8.35592715 11.89060018 6.14257812 14.08447266 C5.56858276 14.65831696 4.9945874 15.23216125 4.40319824 15.82339478 C3.78545532 16.43081512 3.1677124 17.03823547 2.53125 17.6640625 C1.89513794 18.29734467 1.25902588 18.93062683 0.6036377 19.58309937 C-1.42625379 21.60181742 -3.46298851 23.61346919 -5.5 25.625 C-6.87155233 26.98651737 -8.2426514 28.34849149 -9.61328125 29.7109375 C-12.62867695 32.70668365 -15.6483954 35.69799256 -18.67199707 38.68545532 C-19.78471451 39.78689625 -20.89290646 40.89290646 -22 42 C-25.3 39.03 -28.6 36.06 -32 33 C-28.08110199 28.33892537 -24.05182926 23.91265945 -19.7265625 19.62890625 C-19.15795502 19.06171371 -18.58934753 18.49452118 -18.00350952 17.91014099 C-16.21303764 16.12520087 -14.41909516 14.34379744 -12.625 12.5625 C-11.39950677 11.34203061 -10.17424428 10.12132947 -8.94921875 8.90039062 C-5.96880226 5.93091244 -2.98527106 2.96459743 0 0 Z " fill="#FCD836" transform="translate(408,65)"/>
<path d="M0 0 C6.36097589 1.91731543 12.14643632 4.36846388 18 7.5 C18.80800049 7.92780762 19.61600098 8.35561523 20.44848633 8.79638672 C28.94815996 13.37752468 36.99665851 18.60978538 45 24 C44.236875 24.721875 43.47375 25.44375 42.6875 26.1875 C40.02110186 28.73807307 40.02110186 28.73807307 38.77416992 31.22143555 C36.30833245 35.08323495 33.18077895 38.06524254 29.92578125 41.26953125 C29.2419487 41.95053391 28.55811615 42.63153656 27.8535614 43.33317566 C25.677874 45.49770768 23.49532083 47.65516424 21.3125 49.8125 C19.83222319 51.28274103 18.35240024 52.75343918 16.87304688 54.22460938 C13.25393443 57.82172302 9.62865016 61.41250895 6 65 C6 62 6 62 7.13891602 60.50032043 C7.67186279 59.97403549 8.20480957 59.44775055 8.75390625 58.90551758 C9.35452881 58.30512161 9.95515137 57.70472565 10.57397461 57.08613586 C11.55829468 56.12504158 11.55829468 56.12504158 12.5625 55.14453125 C13.22838135 54.48289474 13.8942627 53.82125824 14.58032227 53.13957214 C16.71329379 51.0234226 18.8564491 48.91792734 21 46.8125 C22.44599425 45.38154797 23.89131571 43.94991572 25.3359375 42.51757812 C28.8828599 39.00377176 32.43895178 35.49948754 36 32 C34.78214772 28.34644317 33.98392669 28.14194529 30.6875 26.36328125 C29.33229248 25.62609863 29.33229248 25.62609863 27.94970703 24.87402344 C26.97630371 24.3587207 26.00290039 23.84341797 25 23.3125 C24.01499512 22.78301758 23.02999023 22.25353516 22.01513672 21.70800781 C13.48365477 17.16321255 4.81039493 12.97285713 -4 9 C-4 5.08599736 -2.46033213 3.9216444 0 1 C0 0.67 0 0.34 0 0 Z " fill="#FEEA93" transform="translate(351,19)"/>
<path d="M0 0 C8.93890192 3.96626774 15.10600389 13.54409492 21 21 C21.7940625 21.98871094 22.588125 22.97742188 23.40625 23.99609375 C28.25644678 30.1432577 32.76309103 36.45461015 37.0625 43 C37.53993652 43.71816895 38.01737305 44.43633789 38.50927734 45.17626953 C40.81516868 48.74909716 42.58509014 51.6646153 43 56 C41.68 56.99 40.36 57.98 39 59 C38.39414062 58.06800781 37.78828125 57.13601562 37.1640625 56.17578125 C25.20874133 37.92450534 11.7136879 21.15690368 -4 6 C-2.84826645 3.53199953 -1.95216435 1.95216435 0 0 Z " fill="#FEF4C6" transform="translate(424,68)"/>
<path d="M0 0 C3.7897264 3.70658797 7.35194568 7.54751775 10.8125 11.5625 C11.56563477 12.40844727 11.56563477 12.40844727 12.33398438 13.27148438 C15.12858992 16.52235205 16 17.56175352 16 22 C3.79 22 -8.42 22 -21 22 C-14.25 14.125 -14.25 14.125 -11.1328125 11.03515625 C-10.47539062 10.38095703 -9.81796875 9.72675781 -9.140625 9.05273438 C-8.47546875 8.39595703 -7.8103125 7.73917969 -7.125 7.0625 C-6.43664062 6.37865234 -5.74828125 5.69480469 -5.0390625 4.99023438 C-3.36166489 3.32448536 -1.68196209 1.6611378 0 0 Z " fill="#FCD736" transform="translate(307,365)"/>
<path d="M0 0 C1.47262892 2.94525784 0.45794156 4.7038996 -0.3984375 7.84765625 C-0.71296875 9.00974609 -1.0275 10.17183594 -1.3515625 11.36914062 C-1.68929688 12.58794922 -2.02703125 13.80675781 -2.375 15.0625 C-2.705 16.28517578 -3.035 17.50785156 -3.375 18.76757812 C-5.85846185 27.85846185 -5.85846185 27.85846185 -7 29 C-8.56172745 29.08685603 -10.12729344 29.10702219 -11.69140625 29.09765625 C-12.63564453 29.09443359 -13.57988281 29.09121094 -14.55273438 29.08789062 C-16.04256836 29.07532227 -16.04256836 29.07532227 -17.5625 29.0625 C-18.55958984 29.05798828 -19.55667969 29.05347656 -20.58398438 29.04882812 C-23.05604849 29.03700007 -25.52799518 29.02051849 -28 29 C-22.61359076 22.44622903 -16.64114873 16.52753365 -10.625 10.5625 C-9.59221405 9.53474017 -8.55966009 8.50674715 -7.52734375 7.47851562 C-5.02089713 4.98298402 -2.5113292 2.49061918 0 0 Z " fill="#FDE169" transform="translate(346,127)"/>
<path d="M0 0 C3.61174918 2.72144038 6.43800395 5.52667533 9.25 9.0625 C10.40048828 10.49722656 10.40048828 10.49722656 11.57421875 11.9609375 C12.37472656 12.96382813 13.17523438 13.96671875 14 15 C15.68159475 17.06739862 17.37219627 19.12719277 19.0625 21.1875 C20.375 22.79166667 21.6875 24.39583333 23 26 C21.35 28.64 19.7 31.28 18 34 C13.31692863 32.43897621 11.2781003 28.62965594 8.296875 24.8203125 C6.43724302 22.53688684 4.59907329 20.71600237 2.4375 18.75 C-1.4097928 14.45756588 -0.47791206 8.43986261 -0.2109375 3.03515625 C-0.14132813 2.03355469 -0.07171875 1.03195312 0 0 Z " fill="#E48E43" transform="translate(168,286)"/>
<path d="M0 0 C15.84 0 31.68 0 48 0 C48 0.33 48 0.66 48 1 C47.25129639 0.93079346 46.50259277 0.86158691 45.73120117 0.7902832 C28.78694898 -0.64935342 28.78694898 -0.64935342 13.9453125 6.296875 C9.76163628 10.33622034 5.97685323 14.67800361 2.41333008 19.27172852 C1.94693115 19.84205811 1.48053223 20.4123877 1 21 C0.67 21 0.34 21 0 21 C0 14.07 0 7.14 0 0 Z " fill="#FCDD67" transform="translate(168,249)"/>
<path d="M0 0 C0.66 1.32 1.32 2.64 2 4 C4.64 4 7.28 4 10 4 C5.81982459 7.44537895 1.44172957 10.53312969 -3 13.625 C-13.58109775 21.04676418 -23.77197972 28.86061451 -33.66015625 37.1875 C-35.73776104 38.79686331 -37.64592322 39.87396196 -40 41 C-35.56583328 35.68931195 -30.88483314 30.75163383 -25.9765625 25.87890625 C-25.23038666 25.13414536 -24.48421082 24.38938446 -23.71542358 23.62205505 C-21.35430611 21.26649173 -18.98971838 18.91444784 -16.625 16.5625 C-15.01409144 14.95661237 -13.40341204 13.35049484 -11.79296875 11.74414062 C-7.86462487 7.82676487 -3.93343326 3.91226513 0 0 Z " fill="#FEF0B1" transform="translate(310,182)"/>
<path d="M0 0 C2.75582893 0.89542871 4.34976181 1.92525786 6.56176758 3.77758789 C7.2675293 4.36088867 7.97329102 4.94418945 8.70043945 5.54516602 C9.42166992 6.15682617 10.14290039 6.76848633 10.88598633 7.39868164 C11.62655273 8.01420898 12.36711914 8.62973633 13.13012695 9.26391602 C14.95164135 10.77988606 16.7655862 12.3040252 18.57348633 13.83618164 C16.92348633 15.81618164 15.27348633 17.79618164 13.57348633 19.83618164 C9.0609744 18.34046139 5.63325758 15.81368903 1.94848633 12.89868164 C1.37614258 12.45588867 0.80379883 12.0130957 0.21411133 11.55688477 C-2.48484168 9.45107376 -5.09143635 7.3451477 -7.42651367 4.83618164 C-3.1183491 -0.21052543 -3.1183491 -0.21052543 0 0 Z " fill="#FEF5C8" transform="translate(396.426513671875,44.163818359375)"/>
<path d="M0 0 C0.76054687 0.09796875 1.52109375 0.1959375 2.3046875 0.296875 C3.18511719 0.40515625 4.06554687 0.5134375 4.97265625 0.625 C6.56013672 0.83382813 6.56013672 0.83382813 8.1796875 1.046875 C9.55059093 1.20994142 10.92169883 1.37129475 12.29296875 1.53125 C13.73444687 1.70252118 15.17585334 1.87439654 16.6171875 2.046875 C17.66447021 2.1711084 17.66447021 2.1711084 18.73291016 2.29785156 C21.68929122 2.66496974 24.34431255 3.10175002 27.1796875 4.046875 C26.02795395 6.51487547 25.13185185 8.09471065 23.1796875 10.046875 C14.12955275 10.56699769 4.83230915 7.38102011 -3.8203125 5.046875 C-3.8203125 1.83896788 -3.55515747 0.09154912 0 0 Z " fill="#FEF4C8" transform="translate(209.8203125,429.953125)"/>
<path d="M0 0 C0 3.84518334 -0.91399434 4.24021891 -3.5625 6.9375 C-8.36542529 12.09987989 -12.59645263 17.60112128 -16.8125 23.25 C-17.45840088 24.11359131 -18.10430176 24.97718262 -18.76977539 25.86694336 C-21.38504228 29.38745564 -23.95525799 32.87791738 -26.26171875 36.609375 C-26.83535156 37.39828125 -27.40898437 38.1871875 -28 39 C-28.99 39 -29.98 39 -31 39 C-31.99 37.35 -32.98 35.7 -34 34 C-22.78 22.78 -11.56 11.56 0 0 Z " fill="#FDF0B1" transform="translate(220,272)"/>
<path d="M0 0 C2 1 2 1 2.68603516 2.73071289 C3.34274783 5.17224832 3.99499545 7.61390672 4.625 10.0625 C4.96917969 11.31450195 4.96917969 11.31450195 5.3203125 12.59179688 C6.70482867 17.87850596 7.36561081 22.53411846 7 28 C5.625 30 5.625 30 4 31 C3.34 31 2.68 31 2 31 C1.87882812 30.26136719 1.75765625 29.52273437 1.6328125 28.76171875 C0.76973085 23.53675525 -0.12355883 18.32534095 -1.125 13.125 C-1.80827802 9.36697087 -2.39288216 5.83060105 -2 2 C-1.34 1.34 -0.68 0.68 0 0 Z " fill="#FEF3C6" transform="translate(443,195)"/>
<path d="M0 0 C3.38998151 1.94137295 6.3405458 4.03396348 9.3125 6.5625 C17.15999715 12.92470335 25.88776437 18.16000506 34.6953125 23.0859375 C35.78585938 23.69695312 36.87640625 24.30796875 38 24.9375 C38.969375 25.46214844 39.93875 25.98679687 40.9375 26.52734375 C41.9584375 27.25630859 41.9584375 27.25630859 43 28 C43 28.99 43 29.98 43 31 C38.01540732 30.46112512 34.50452607 28.1403657 30.375 25.5 C29.66641846 25.05148682 28.95783691 24.60297363 28.2277832 24.14086914 C22.09665574 20.19223121 16.53535073 15.74222585 11 11 C8.01093444 8.61024583 5.0180669 6.22551599 2.01953125 3.84765625 C1.35308594 3.23792969 0.68664062 2.62820313 0 2 C0 1.34 0 0.68 0 0 Z " fill="#FEF2C2" transform="translate(130,388)"/>
<path d="M0 0 C4.29 0 8.58 0 13 0 C8.02838782 6.01826738 2.70170757 11.66337352 -3 17 C-3.33 17 -3.66 17 -4 17 C-3.58411954 10.80481527 -2.39748106 5.73310689 0 0 Z " fill="#FDEFB0" transform="translate(173,186)"/>
<path d="M0 0 C2.53543785 2.23337888 3.59491022 4.06383452 4.60546875 7.2734375 C4.86650391 8.0984375 5.12753906 8.9234375 5.39648438 9.7734375 C5.78803711 11.06121094 5.78803711 11.06121094 6.1875 12.375 C6.59645508 13.65117187 6.59645508 13.65117187 7.01367188 14.953125 C8.31392998 19.13741423 9.15032867 22.58354797 9 27 C8.01 27.33 7.02 27.66 6 28 C4.8491847 24.60583457 3.7052339 21.20939392 2.5625 17.8125 C2.07426758 16.37293945 2.07426758 16.37293945 1.57617188 14.90429688 C1.10727539 13.50727539 1.10727539 13.50727539 0.62890625 12.08203125 C0.34088135 11.22843018 0.05285645 10.3748291 -0.24389648 9.49536133 C-1.00620582 6.97951897 -1.69055914 4.61351704 -2 2 C-1.34 1.34 -0.68 0.68 0 0 Z " fill="#FEF3C2" transform="translate(482,156)"/>
<path d="M0 0 C4.76460199 8.91394779 4.33097066 21.12604187 4 31 C3.67 31 3.34 31 3 31 C2.29069835 27.52491922 1.61166127 24.04455408 0.9375 20.5625 C0.73833984 19.58861328 0.53917969 18.61472656 0.33398438 17.61132812 C-0.85367964 11.38130112 -1.03011101 6.26488898 0 0 Z " fill="#FCE381" transform="translate(493,191)"/>
<path d="M0 0 C4.25993762 3.71223136 6.86861137 8.33781101 9.75 13.125 C10.25660156 13.94871094 10.76320313 14.77242187 11.28515625 15.62109375 C15 21.73907092 15 21.73907092 15 24 C11.4843161 22.82810537 11.29259282 22.26719127 9.58984375 19.140625 C8.94112305 17.96113281 8.94112305 17.96113281 8.27929688 16.7578125 C7.61510742 15.51644531 7.61510742 15.51644531 6.9375 14.25 C6.26750977 13.03183594 6.26750977 13.03183594 5.58398438 11.7890625 C3.48417885 7.93471095 1.48955269 4.14045155 0 0 Z " fill="#FDF0BD" transform="translate(414,138)"/>
<path d="M0 0 C1.90608098 3.21182149 2.22266247 5.53882603 2.125 9.25 C2.10695313 10.14203125 2.08890625 11.0340625 2.0703125 11.953125 C2.03550781 12.96632812 2.03550781 12.96632812 2 14 C-0.3797234 11.6202766 -0.58749232 10.25575205 -1.25 7 C-1.53617187 5.6696875 -1.53617187 5.6696875 -1.828125 4.3125 C-1.88484375 3.549375 -1.9415625 2.78625 -2 2 C-1.34 1.34 -0.68 0.68 0 0 Z " fill="#FDE78D" transform="translate(491,182)"/>
<path d="M0 0 C2.17766075 4.35532149 2.03039555 5.46625958 1 10 C0.34 9.67 -0.32 9.34 -1 9 C-0.67 6.03 -0.34 3.06 0 0 Z " fill="#F9D46F" transform="translate(493,191)"/>
</svg>
